<?xml version="1.0" encoding="utf-8"?>
<!-- Generator: Adobe Illustrator 19.1.0, SVG Export Plug-In . SVG Version: 6.00 Build 0)  -->
<svg version="1.1" id="Layer_1" xmlns:sketch="http://www.bohemiancoding.com/sketch/ns"
	 xmlns="http://www.w3.org/2000/svg" xmlns:xlink="http://www.w3.org/1999/xlink" x="0px" y="0px"
	 viewBox="-569.5 196.2 474.3 217.5" enable-background="new -569.5 196.2 474.3 217.5" xml:space="preserve">
<title>10 - Mail (Outline)</title>
<desc>Created with Sketch.</desc>
<g>
	<path fill="#FFFFFF" stroke="#283039" stroke-miterlimit="10" d="M-286.5,399.1h-92.4c-1,0-1.3-1.3-0.5-1.9l7.7-5.5
		c8.3-5.9,12.3-16.7,9.9-27v0h58.3l0,0c-2.4,10.3,1.5,21.1,9.9,27l7.7,5.4C-285.1,397.8-285.5,399.1-286.5,399.1z"/>
	<path fill="#FFFFFF" stroke="#283039" stroke-miterlimit="10" d="M-211.8,364.8h-241.7c-1.9,0-3.5-1.6-3.5-3.5V201.5
		c0-1.9,1.6-3.5,3.5-3.5h241.7c1.9,0,3.5,1.6,3.5,3.5v159.8C-208.3,363.3-209.9,364.8-211.8,364.8z"/>
	<path fill="#FFFFFF" stroke="#283039" stroke-miterlimit="10" d="M-278.4,412h-108.5c-0.8,0-1.5-0.7-1.5-1.5v-9.9
		c0-0.8,0.7-1.5,1.5-1.5h108.5c0.8,0,1.5,0.7,1.5,1.5v9.9C-276.9,411.3-277.6,412-278.4,412z"/>
	<path fill="#FFFFFF" stroke="#283039" stroke-miterlimit="10" d="M-222.2,352h-221c-0.6,0-1-0.4-1-1V211.9c0-0.6,0.4-1,1-1h221
		c0.6,0,1,0.4,1,1V351C-221.2,351.5-221.6,352-222.2,352z"/>
	<rect x="-383.4" y="215.7" opacity="0.1" fill="#283039" width="157.2" height="28.3"/>
	<rect x="-383.4" y="311" opacity="0.1" fill="#283039" width="158.1" height="36.3"/>
	<rect x="-383.4" y="249" opacity="0.1" fill="#283039" width="157.2" height="57"/>
	<rect x="-444.2" y="210.9" opacity="0.1" fill="#283039" width="55.8" height="141.1"/>
</g>
<g>
	<path fill="#FFFFFF" stroke="#283039" stroke-miterlimit="10" d="M-180.3,397.6c-0.7,2.1-2.7,3.6-5.1,3.6h-28.8
		c-2.3,0-4.3-1.5-5.1-3.6h-84.7c-1.1,0-2.1,0.9-2.1,2.1v10.2c0,1.1,0.9,2.1,2.1,2.1h204.6c1.1,0,2.1-0.9,2.1-2.1v-10.2
		c0-1.1-0.9-2.1-2.1-2.1H-180.3z"/>
	<path fill="#FFFFFF" stroke="#283039" stroke-miterlimit="10" d="M-219.3,397.6c0.7,2.1,2.7,3.6,5.1,3.6h28.8
		c2.3,0,4.3-1.5,5.1-3.6h72.3V279c0-6.1-4.9-11-11-11h-165.1c-6.1,0-11,4.9-11,11v118.6H-219.3z"/>
	<rect x="-284.4" y="278.8" fill="#FFFFFF" stroke="#283039" stroke-miterlimit="10" width="165.6" height="108"/>
	<rect x="-284.4" y="278.8" opacity="0.1" fill="#283039" width="42.4" height="108"/>
	<rect x="-237" y="283.8" opacity="0.1" fill="#283039" width="112.8" height="20.2"/>
	<rect x="-237" y="354.6" opacity="0.1" fill="#283039" width="112.8" height="27.2"/>
	<rect x="-237" y="309" opacity="0.1" fill="#283039" width="112.8" height="40.5"/>
</g>
<g>
	<g>
		<path fill="#FFFFFF" stroke="#283039" stroke-miterlimit="10" d="M-400.3,316.6v89.1c0,3.2-3.3,6.4-7.3,6.4h-128.1
			c-4,0-7.3-3.2-7.3-7.1v-89.1c0-3.9,3.3-7.1,7.3-7.1h128.1C-403.6,308.6-400.3,311.8-400.3,316.6z"/>
	</g>
	<line fill="#FFFFFF" stroke="#283039" stroke-miterlimit="10" x1="-535.7" y1="360.3" x2="-535.7" y2="357.9"/>
	<path fill="#FFFFFF" stroke="#283039" stroke-miterlimit="10" d="M-400.3,315.8v89.1c0,3.9-3.3,7.1-7.3,7.1h-128.1
		c-4,0-7.3-3.2-7.3-7.1v-89.1c0-3.9,3.3-7.1,7.3-7.1h128.1C-403.6,308.6-400.3,311.8-400.3,315.8z"/>
	<rect x="-528.3" y="316" fill="#FFFFFF" stroke="#283039" stroke-miterlimit="10" width="103.4" height="88.6"/>
	<circle fill="#FFFFFF" stroke="#283039" stroke-miterlimit="10" cx="-412.6" cy="360.3" r="7.4"/>
	<rect x="-524.5" y="319.8" opacity="0.1" fill="#283039" width="96" height="16.9"/>
	<rect x="-524.5" y="378.9" opacity="0.1" fill="#283039" width="96" height="22.7"/>
	<rect x="-524.5" y="340.9" opacity="0.1" fill="#283039" width="96" height="33.9"/>
</g>
<g>
	<line fill="#FFFFFF" stroke="#283039" stroke-miterlimit="10" x1="-557.1" y1="346.8" x2="-557.1" y2="346.8"/>
	<line fill="#FFFFFF" stroke="#283039" stroke-miterlimit="10" x1="-546.8" y1="343.8" x2="-546.8" y2="343.8"/>
	<path fill="#FFFFFF" stroke="#283039" stroke-miterlimit="10" d="M-524.5,412h-38.7c-2.4,0-4.4-2-4.4-4.4v-77.2
		c0-2.4,2-4.4,4.4-4.4h38.7c2.4,0,4.4,2,4.4,4.4v77.2C-520.1,410-522,412-524.5,412z"/>
	<rect x="-567.5" y="334.9" fill="#FFFFFF" stroke="#283039" stroke-miterlimit="10" width="47.4" height="65.2"/>
	<line fill="#FFFFFF" stroke="#283039" stroke-miterlimit="10" x1="-545.3" y1="330.4" x2="-537.9" y2="330.4"/>
	<line fill="#FFFFFF" stroke="#283039" stroke-miterlimit="10" x1="-551.2" y1="330.4" x2="-549.7" y2="330.4"/>
	<line fill="none" stroke="#283039" stroke-miterlimit="10" x1="-568" y1="339.3" x2="-568" y2="340.8"/>
	<line fill="none" stroke="#283039" stroke-miterlimit="10" x1="-568" y1="345.3" x2="-568" y2="346.8"/>
	<line fill="none" stroke="#283039" stroke-miterlimit="10" x1="-568" y1="351.2" x2="-568" y2="352.7"/>
	<circle fill="#FFFFFF" stroke="#283039" stroke-miterlimit="10" cx="-543.8" cy="406.1" r="4.4"/>
	<rect x="-565.5" y="337.2" opacity="0.1" fill="#283039" width="43.3" height="13.7"/>
	<rect x="-565.5" y="380.3" opacity="0.1" fill="#283039" width="43.3" height="18.1"/>
	<rect x="-565.5" y="353" opacity="0.1" fill="#283039" width="43.3" height="25.3"/>
</g>
</svg>
